<svg width="271" height="130" viewBox="0 0 271 130" fill="none" xmlns="http://www.w3.org/2000/svg">
<path d="M47 36.3457C51.9105 29.4906 57.1795 23.5696 63.8165 19.3534C72.0693 14.1107 80.862 14.024 89.4861 17.7604C101.802 23.0963 111.173 37.2858 124.365 39.8671C137.747 42.4857 153.692 37.2347 162.469 23.5176C165.04 19.4986 168.413 10.6264 162.914 7.92271C157.202 5.1144 151.987 9.11035 148.299 14.6022C141.191 25.1876 138.028 39.0786 135.909 52.3878C134.34 62.2477 133.529 72.74 133.529 82.7951C133.529 92.9627 134.757 103.945 139.09 112.699C146.26 127.186 166.977 124.285 177.128 116.836C183.324 112.288 193.143 100.738 201.151 86.6519C207.557 72.5662 223.573 -5.52023 197.948 14.6022" stroke="#41D0C8" stroke-width="13" stroke-linecap="round"/>
<path d="M79 31C79 73.5149 58.6522 156.52 7 99.8336" stroke="#FF9446" stroke-width="13" stroke-linecap="round"/>
<path d="M196.396 15C179.496 44.803 213.297 155.591 264 99.2767" stroke="#3FC7DA" stroke-width="13" stroke-linecap="round"/>
</svg>
